<svg xmlns="http://www.w3.org/2000/svg" viewBox="0 0 498.54 160.57"><defs><linearGradient id="linear-gradient" y1="331.36" x2="1" y2="331.36" gradientTransform="matrix(-8.6 115.49 115.49 8.6 -38238.01 -2802.58)" gradientUnits="userSpaceOnUse"><stop offset="0" stop-color="#009eff"></stop><stop offset="1" stop-color="#0056c8"></stop></linearGradient><linearGradient id="linear-gradient-2" y1="331.31" x2="1" y2="331.31" gradientTransform="matrix(-3.83 -46.54 -46.53 3.83 15438.05 -1251.42)" gradientUnits="userSpaceOnUse"><stop offset="0" stop-color="#4db3ff"></stop><stop offset="1" stop-color="#2e79ff"></stop></linearGradient><linearGradient id="linear-gradient-3" y1="331.28" x2="1" y2="331.28" gradientTransform="matrix(0 24.99 24.99 0 -8248.04 17.19)" gradientUnits="userSpaceOnUse"><stop offset="0" stop-color="#32a9ff"></stop><stop offset="1" stop-color="#1e6fff"></stop></linearGradient><linearGradient id="linear-gradient-4" y1="331.26" x2="1" y2="331.26" gradientTransform="scale(-72.9 72.9) rotate(-67.64 -247.187 166.783)" gradientUnits="userSpaceOnUse"><stop offset="0" stop-color="#4cb4ff"></stop><stop offset="1" stop-color="#2d79ff"></stop></linearGradient><linearGradient id="linear-gradient-5" y1="331.28" x2="1" y2="331.28" gradientTransform="matrix(0 114.24 114.24 0 -37756.48 55.8)" gradientUnits="userSpaceOnUse"><stop offset="0" stop-color="#34a8ff"></stop><stop offset="1" stop-color="#1d6eff"></stop></linearGradient><style>.cls-11{fill:#48acff}</style></defs><g id="Layer_2" data-name="Layer 2"><g id="logo"><path d="M39.73 126.16L0 103.23V11.47l19.87 11.47v22.94L59.6 68.82v91.75L39.73 149.1z" fill="url(#linear-gradient)" fill-rule="evenodd"></path><path d="M0 11.47L19.87 0l19.86 11.47-19.86 11.47L0 11.47" fill="url(#linear-gradient-2)" fill-rule="evenodd"></path><path d="M39.73 11.47v22.94L19.87 45.88V22.94z" fill="url(#linear-gradient-3)" fill-rule="evenodd"></path><path d="M59.6 45.88l39.73-22.94 19.86 11.47L59.6 68.82 19.87 45.88l19.86-11.47z" fill="url(#linear-gradient-4)" fill-rule="evenodd"></path><path d="M39.73 80.29v22.94L19.87 91.76V68.82z" fill="#2075de" fill-rule="evenodd"></path><path d="M119.19 34.41v68.82l-39.73 22.93v22.94L59.6 160.57V68.82z" fill="url(#linear-gradient-5)" fill-rule="evenodd"></path><path d="M99.33 68.82v22.94l-19.87 11.47V80.29z" fill="#1e7fff" fill-rule="evenodd"></path><path d="M19.87 91.76l19.86-11.47v22.94z" fill="#1b5fbb" fill-rule="evenodd"></path><path d="M99.33 91.76L79.46 80.29v22.94z" fill="#1765cd" fill-rule="evenodd"></path><g style="isolation:isolate"><path class="cls-11" d="M156.31 58.9h14.15c4.82 0 8.35 1.12 10.56 3.37s3.32 5.69 3.32 10.35V75a16.3 16.3 0 01-1.49 7.5 8.77 8.77 0 01-4.55 4.18v.17q7 2.39 7 12.44v5.11q0 6.9-3.62 10.52t-10.61 3.62h-14.76zm13 24.28a5.63 5.63 0 004.22-1.45q1.4-1.44 1.4-4.85v-3.32a7.57 7.57 0 00-1.15-4.69 4.32 4.32 0 00-3.62-1.45h-4.51v15.76zm1.7 26.84a4.72 4.72 0 003.67-1.32c.79-.88 1.19-2.4 1.19-4.56v-5.2q0-4.08-1.41-5.66t-4.64-1.58h-4.17V110zM190.73 58.9h13.89q7.24 0 10.57 3.37t3.32 10.35v3.66q0 9.28-6.14 11.76v.17a7.33 7.33 0 014.82 4.17 21.22 21.22 0 011.4 8.44v10.48a41.14 41.14 0 00.17 4.13 10.4 10.4 0 00.86 3.11h-9.55a14 14 0 01-.68-2.73 41.86 41.86 0 01-.17-4.6v-10.9q0-4.09-1.32-5.71t-4.56-1.6h-3.23v25.56h-9.38zm12.78 25.56a5.61 5.61 0 004.22-1.46q1.41-1.44 1.41-4.85v-4.6a7.63 7.63 0 00-1.14-4.68 4.34 4.34 0 00-3.62-1.45h-4.26v17zM232.31 58.9H245l9.72 59.64h-9.37l-1.71-11.84v.17H233l-1.7 11.67h-8.7zm10.22 39.87l-4.17-29.47h-.17l-4.09 29.47zM259.23 58.9H271l9.11 35.7h.17V58.9h8.35v59.64H279L267.75 75h-.17v43.54h-8.35zM295.61 58.9h14.31q7 0 10.48 3.75t3.49 11v30.15q0 7.24-3.49 11t-10.48 3.75h-14.31zm14.14 51.1a4.53 4.53 0 003.54-1.36 6.53 6.53 0 001.23-4.43v-31a6.55 6.55 0 00-1.23-4.44 4.57 4.57 0 00-3.54-1.36H305V110zM343.83 58.9h13.8q7 0 10.48 3.75t3.49 11v5.88q0 7.24-3.49 11t-10.48 3.75h-4.43v24.28h-9.37zm13.8 26.84a4.42 4.42 0 003.45-1.28c.77-.85 1.15-2.3 1.15-4.34V73c0-2-.38-3.49-1.15-4.34a4.42 4.42 0 00-3.45-1.28h-4.43v18.36zM376.71 58.9h9.38V110h15.42v8.52h-24.8zM413.6 58.9h12.7l9.7 59.64h-9.37l-1.7-11.84v.17h-10.65l-1.7 11.67h-8.69zm10.23 39.87l-4.18-29.47h-.17l-4.09 29.47zM443.29 115.56q-3.53-3.84-3.53-10.82v-32q0-7 3.53-10.82t10.27-3.83q6.74 0 10.27 3.83t3.53 10.82V79h-8.86v-6.9q0-5.53-4.68-5.54t-4.69 5.54v33.31c0 3.64 1.56 5.45 4.69 5.45s4.68-1.81 4.68-5.45V96.3h8.86v8.44q0 7-3.53 10.82t-10.27 3.83q-6.73 0-10.27-3.83zM473 58.9h25.56v8.52h-16.2v15.76h12.86v8.52h-12.86V110h16.18v8.52H473z"></path></g></g></g></svg>